<?xml version="1.0" encoding="UTF-8"?>
<!-- Generator: visioncortex VTracer 0.6.12 -->
<svg version="1.1" xmlns="http://www.w3.org/2000/svg" width="1340" height="760">

<path d="M0 0 C2.359375 0.101562 2.359375 0.101562 5 1 C6.703125 3.335938 6.703125 3.335938 8.25 6.375 C11.259669 11.891638 14.684416 16.49392 18.738281 21.277344 C20.989111 23.986892 23.068929 26.76559 25.125 29.625 C33.923419 41.856527 43.387851 53.707439 54.210938 64.21875 C56.662733 66.659839 58.905689 69.256363 61.160156 71.878906 C63.195088 74.224911 65.28291 76.517365 67.375 78.8125 C70.369563 82.117018 73.189915 85.488898 75.9375 89 C80.316779 94.41607 85.139798 99.326798 90.0625 104.25 C90.818455 105.00668 91.574409 105.763359 92.353271 106.542969 C96.607226 110.755739 100.950206 114.764041 105.564209 118.581055 C106.03802 119.049307 106.511831 119.517559 107 120 C107 120.66 107 121.32 107 122 C107.553975 122.227278 108.107949 122.454556 108.678711 122.688721 C111.677334 124.382621 113.727945 126.522229 116.140625 128.980469 C116.626501 129.471546 117.112377 129.962624 117.612976 130.468582 C119.163503 132.036856 120.707192 133.611635 122.25 135.1875 C124.272561 137.246946 126.298366 139.303117 128.328125 141.355469 C128.824152 141.857085 129.320179 142.358702 129.831238 142.875519 C132.46115 145.516226 135.13269 148.055309 137.96875 150.472656 C143.723443 155.380155 148.939901 160.872359 154.25 166.25 C156.377273 168.403975 158.507923 170.554528 160.640625 172.703125 C161.119854 173.190652 161.599083 173.67818 162.092834 174.180481 C164.088424 176.190578 166.044936 178.032833 168.334961 179.706055 C168.609692 179.919556 168.609692 179.919556 170 181 C170 181.66 170 182.32 170 183 C170.582656 183.268125 171.165313 183.53625 171.765625 183.8125 C174.027866 185.01481 175.805763 186.338259 177.75 188 C178.363594 188.515625 178.977188 189.03125 179.609375 189.5625 C181 191 181 191 181 193 C181.592244 193.27457 182.184487 193.549141 182.794678 193.832031 C184.909311 194.95197 186.491147 196.116969 188.285156 197.6875 C188.892627 198.216338 189.500098 198.745176 190.125977 199.290039 C190.765029 199.854326 191.404082 200.418613 192.0625 201 C192.728623 201.582334 193.394746 202.164668 194.081055 202.764648 C198.913084 207.002253 203.657737 211.327966 208.390625 215.675781 C211.027403 218.024408 213.740311 220.235206 216.5 222.4375 C221.49138 226.460509 225.960931 230.861644 230.4375 235.433594 C233.21372 238.214046 236.11455 240.772208 239.101562 243.320312 C241.886431 245.784291 244.457203 248.446563 247.0625 251.097656 C248.832465 252.835505 250.64907 254.423983 252.5625 256 C254.904657 257.96202 256.896378 259.976522 258.847656 262.324219 C262.228826 266.235496 265.820282 269.884946 269.492188 273.519531 C270.086098 274.107898 270.680008 274.696264 271.291916 275.30246 C273.771502 277.754632 276.25458 280.20319 278.742676 282.646729 C286.321844 290.099211 293.512771 297.557213 300 306 C300.262324 306.340756 300.262324 306.340756 301.589844 308.065186 C302.934594 309.842011 304.2547 311.633352 305.5625 313.4375 C306.023018 314.070188 306.483535 314.702876 306.958008 315.354736 C316.981866 329.208071 325.549148 343.595932 333.009277 358.965332 C333.98074 360.960446 334.968427 362.946932 335.957031 364.933594 C339.215252 371.579994 341.854853 378.031352 343.394531 385.316406 C344 388 344 388 344.941406 390.664062 C354.987445 422.322058 349.855564 455.261034 335.043213 484.445801 C331.570396 491.042241 327.691765 498.056741 322 503 C321.34 503 320.68 503 320 503 C319.991913 502.423875 319.983826 501.847749 319.975494 501.254166 C319.888342 495.168841 319.788815 489.083801 319.682617 482.998779 C319.644717 480.738412 319.609802 478.477992 319.578125 476.217529 C319.3169 457.797108 318.487007 440.709788 313 423 C312.383483 420.794804 311.785464 418.585068 311.188477 416.374512 C303.959488 389.67462 292.994316 365.275633 275 344 C273.520048 342.1673 272.04091 340.333944 270.5625 338.5 C264.708799 331.362327 258.621739 324.437801 252 318 C250.333333 316.333333 248.666667 314.666667 247 313 C246.643574 312.646797 246.643574 312.646797 244.839844 310.859375 C242.619039 308.642669 240.450218 306.380487 238.285156 304.109375 C229.749883 295.247107 221.611411 288.210913 211 282 C201.547354 275.716689 192.515087 268.804094 183.626953 261.751709 C177.224975 256.673713 170.829763 251.766966 163.722656 247.695312 C152.48058 241.24524 142.739437 232.729073 132.971924 224.273193 C128.91292 220.761792 124.767336 217.385745 120.558594 214.054688 C108.952393 204.734288 97.790596 194.927103 87.344238 184.320801 C83.863043 180.80326 80.263282 177.524782 76.425781 174.402344 C75 173 75 173 74 170 C73.01 169.67 72.02 169.34 71 169 C61.538677 159.209756 52.94627 146.688258 48 134 C47.67 133.34 47.34 132.68 47 132 C46.01 132.33 45.02 132.66 44 133 C42.5 131.625 42.5 131.625 41 130 C41 129.34 41 128.68 41 128 C40.69127 127.956816 40.69127 127.956816 39.128906 127.738281 C37 127 37 127 35.839844 125.292969 C35.54207 124.598164 35.244297 123.903359 34.9375 123.1875 C33.967836 120.969341 33.094745 119.12096 31.5979 117.209961 C29.818479 114.748948 28.645709 112.306828 27.40625 109.535156 C26.933164 108.487793 26.460078 107.44043 25.972656 106.361328 C25.48668 105.272715 25.000703 104.184102 24.5 103.0625 C23.534008 100.906314 22.565348 98.751321 21.59375 96.597656 C21.167715 95.643831 20.74168 94.690005 20.302734 93.707275 C19.013667 91.028402 17.535547 88.543043 16 86 C5.812835 60.041343 -2.281515 29.056024 -1 1 C-0.67 0.67 -0.34 0.34 0 0 Z " fill="#162134" transform="translate(179,106)"/>
<path d="M0 0 C0.969375 0.825 1.93875 1.65 2.9375 2.5 C3.588477 3.051719 4.239453 3.603437 4.910156 4.171875 C6.262561 5.354913 7.585876 6.572421 8.871094 7.828125 C24.578439 22.892479 41.890784 28.003985 63.123047 28.649902 C76.371294 29.088571 89.181967 32.488781 99 42 C106.83541 51.794263 103.679649 73.612183 102.691406 85.4375 C100.550419 103.32327 94.480714 120.183877 86 136 C85.588789 136.768281 85.177578 137.536562 84.753906 138.328125 C73.174716 159.538605 57.433421 177.439739 39 193 C38.047383 193.806953 37.094766 194.613906 36.113281 195.445312 C26.078636 203.902813 15.937051 212.120205 4.114258 217.937988 C0.723061 219.641418 -2.573964 221.504265 -5.875 223.375 C-6.566824 223.765667 -7.258647 224.156333 -7.971436 224.558838 C-14.413156 228.209471 -20.837284 231.891523 -27 236 C-29.625 236.1875 -29.625 236.1875 -32 236 C-32.33 235.67 -32.66 235.34 -33 235 C-32.763453 229.441136 -30.922621 225.524895 -28.34375 220.644531 C-26.262895 216.549361 -24.633541 212.289187 -23 208 C-23.99 208 -24.98 208 -26 208 C-26.226875 208.721875 -26.45375 209.44375 -26.6875 210.1875 C-27.960738 212.915868 -29.285143 214.327763 -31.433594 216.367188 C-37.53739 222.729748 -42.032116 229.145657 -43 238 C-43.544184 242.78882 -45.336026 245.028298 -49 248 C-55.104503 252.65105 -61.546033 256.580491 -68.238281 260.324219 C-71.045155 262.0274 -73.469514 263.911469 -76 266 C-78.039107 267.565839 -80.080961 269.128104 -82.125 270.6875 C-91.226189 277.676446 -100.027836 284.72052 -108 293 C-108.977298 293.960238 -109.956195 294.918857 -110.9375 295.875 C-113 298 -113 298 -114 300 C-120.27 300 -126.54 300 -133 300 C-131.994231 293.888017 -130.850965 288.184305 -128.777344 282.355469 C-127.907636 279.720122 -127.263196 277.075617 -126.625 274.375 C-124.837734 267.098922 -122.46548 260.066513 -120 253 C-119.655498 252.003716 -119.310996 251.007432 -118.956055 249.980957 C-105.975737 212.542815 -89.85651 177.212519 -68.243164 143.927246 C-66.839079 141.750528 -65.462303 139.557624 -64.085938 137.363281 C-63.099486 135.804353 -62.112518 134.245752 -61.125 132.6875 C-60.672217 131.962886 -60.219434 131.238271 -59.75293 130.491699 C-55.560786 123.943627 -55.560786 123.943627 -52 122 C-49.096705 122.372217 -47.629857 123.301398 -45.675781 125.46875 C-39.166994 134.694418 -37.845416 147.018902 -39 158 C-40.244865 164.848456 -41.663867 171.441391 -46 177 C-47.462469 179.686026 -48.789811 182.436424 -50.125 185.1875 C-53.880769 192.880769 -53.880769 192.880769 -55 194 C-55.040638 195.666171 -55.042721 197.333881 -55 199 C-51.365914 195.50792 -48.210987 191.849036 -45.1875 187.8125 C-44.301638 186.643881 -43.414912 185.475917 -42.527344 184.308594 C-42.095347 183.739956 -41.66335 183.171318 -41.218262 182.585449 C-39.602126 180.482205 -37.928388 178.42877 -36.25 176.375 C-29.892848 168.457574 -23.919543 160.247113 -18 152 C-17.559785 151.391724 -17.11957 150.783447 -16.666016 150.156738 C-5.825789 134.993859 1.882172 116.868169 7 99 C7.251206 98.13085 7.502412 97.261699 7.76123 96.366211 C8.864321 92.540169 9.963554 88.713375 11.034424 84.878174 C11.27572 84.014744 11.517017 83.151313 11.765625 82.261719 C11.979932 81.487878 12.194238 80.714038 12.415039 79.916748 C13 78 13 78 14 76 C14.32733 70.153734 13.4036 64.732249 12.3125 59 C12.133884 58.046658 11.955269 57.093315 11.77124 56.111084 C3.943914 14.915872 3.943914 14.915872 -2 6 C-2.125 3.3125 -2.125 3.3125 -2 1 C-1.34 0.67 -0.68 0.34 0 0 Z " fill="#162134" transform="translate(527,460)"/>
<path d="M0 0 C0.869694 0.011264 1.739388 0.022528 2.635437 0.034134 C5.465834 0.078904 8.295136 0.144219 11.125 0.214844 C12.086198 0.236456 13.047395 0.258068 14.03772 0.280334 C53.098366 1.237025 53.098366 1.237025 70.125 9.152344 C71.843138 9.650428 73.572529 10.111909 75.3125 10.527344 C81.52056 12.157915 87.264203 14.55962 93.125 17.152344 C93.984805 17.521016 94.844609 17.889688 95.730469 18.269531 C107.22799 23.31383 118.687412 29.013743 128.808594 36.480469 C131.323296 38.295464 133.919043 39.906321 136.5625 41.527344 C145.328497 47.058564 153.005754 53.923691 160.644531 60.894531 C162.337094 62.435163 164.043533 63.960653 165.761719 65.472656 C170.109195 69.306753 174.159176 73.129008 177.839844 77.609375 C180.304602 80.568584 183.120635 83.190011 185.898438 85.851562 C190.509882 90.344531 194.613179 95.081143 198.640625 100.101562 C200.905417 102.882698 203.223978 105.599814 205.575928 108.306641 C211.41985 115.033828 216.852442 121.964251 222.125 129.152344 C223.541461 131.006668 224.958133 132.86083 226.375 134.714844 C230.905843 140.745388 235.141103 146.964581 239.377686 153.204102 C242.969818 158.488615 246.633045 163.696592 250.441406 168.828125 C253.781431 173.439064 256.804453 178.22029 259.75 183.089844 C262.782473 188.064463 265.940284 192.940396 269.1875 197.777344 C274.597301 205.835779 279.811869 213.995947 284.875 222.277344 C287.920888 227.248793 291.060651 232.147013 294.25 237.027344 C298.709388 243.857675 302.971988 250.794227 307.1875 257.777344 C311.496037 264.9099 315.886704 271.948631 320.565186 278.843994 C324.088406 284.046609 327.424277 289.35645 330.727539 294.700928 C332.513456 297.587962 334.316544 300.433964 336.226562 303.242188 C338.113978 306.135447 339.598113 309.056156 341.125 312.152344 C342.666222 314.906459 344.268149 317.623609 345.875 320.339844 C346.095148 320.713188 346.095148 320.713188 347.209229 322.602539 C350.259152 327.751054 353.397552 332.833333 356.652344 337.855469 C357.700251 339.48987 358.709495 341.149338 359.691406 342.824219 C361.125 345.152344 361.125 345.152344 363.125 347.152344 C363.25 349.777344 363.25 349.777344 363.125 352.152344 C362.135 352.482344 361.145 352.812344 360.125 353.152344 C357.9375 351.839844 357.9375 351.839844 356.125 350.152344 C356.125 349.492344 356.125 348.832344 356.125 348.152344 C355.555234 347.921602 354.985469 347.690859 354.398438 347.453125 C351.549622 345.823133 349.879787 343.832068 347.75 341.339844 C344.400496 337.518114 341.089986 334.30631 337.125 331.152344 C335.455482 329.488533 333.78927 327.821403 332.125 326.152344 C330.081724 324.214683 328.010863 322.307721 325.9375 320.402344 C325.36145 319.870686 324.7854 319.339028 324.191895 318.79126 C320.996534 315.848352 317.766166 312.954197 314.5 310.089844 C308.439094 304.676896 302.776407 298.853573 297.075684 293.066162 C292.819337 288.763675 288.506852 284.620973 283.893311 280.701904 C281.416929 278.531865 279.143178 276.182372 276.839844 273.832031 C275.16658 272.193071 273.431893 270.70382 271.625 269.214844 C268.308069 266.433382 265.552577 263.325681 262.75 260.035156 C260.660093 257.613677 258.415999 255.383054 256.125 253.152344 C255.3 252.306719 254.475 251.461094 253.625 250.589844 C251.125 248.152344 251.125 248.152344 248.3125 245.964844 C247.590625 245.366719 246.86875 244.768594 246.125 244.152344 C246.125 243.492344 246.125 242.832344 246.125 242.152344 C245.542344 241.898398 244.959687 241.644453 244.359375 241.382812 C241.88312 240.01914 240.319794 238.510092 238.375 236.464844 C235.702428 233.712937 232.992842 231.127487 230.0625 228.652344 C227.518927 226.466323 225.272381 224.249152 223.125 221.675781 C220.036031 218.097736 216.770771 214.731212 213.410156 211.410156 C212.905685 210.911229 212.401213 210.412301 211.881454 209.898254 C209.780598 207.824971 207.675905 205.755667 205.567139 203.69043 C204.010503 202.163807 202.459995 200.631173 200.910156 199.097656 C199.991135 198.195474 199.072114 197.293291 198.125244 196.36377 C196.125 194.152344 196.125 194.152344 196.125 192.152344 C195.542344 191.906133 194.959687 191.659922 194.359375 191.40625 C191.754161 189.944233 190.320366 188.358141 188.375 186.089844 C184.19709 181.330718 179.911629 176.693047 175.5625 172.089844 C174.880747 171.367083 174.198994 170.644321 173.496582 169.899658 C171.373615 167.649708 169.24943 165.400913 167.125 163.152344 C139.276988 133.668093 139.276988 133.668093 132 124.464844 C128.998999 120.763609 125.515193 117.532222 122.109375 114.207031 C115.294565 107.528329 109.005805 100.684684 103.125 93.152344 C94.807427 82.600649 94.807427 82.600649 90.125 78.152344 C84.730208 72.996259 79.957388 67.572157 75.285156 61.753906 C72.932362 58.920343 70.433127 56.361918 67.78125 53.8125 C66.063867 52.091066 64.546165 50.278206 63 48.402344 C59.811091 44.700027 56.282645 41.552018 52.5625 38.402344 C52.020288 37.942471 51.478076 37.482598 50.919434 37.008789 C47.46753 34.135517 43.896507 31.60124 40.125 29.152344 C39.432773 28.659922 38.740547 28.1675 38.027344 27.660156 C31.775154 23.260007 25.116306 20.199172 18.125 17.152344 C17.736992 16.960918 17.736992 16.960918 15.773438 15.992188 C9.104095 12.893182 2.139806 12.085973 -5.095947 11.190674 C-5.940847 11.082634 -6.785747 10.974595 -7.65625 10.863281 C-8.42002 10.77353 -9.183789 10.683779 -9.970703 10.591309 C-11.875 10.152344 -11.875 10.152344 -13.875 8.152344 C-14 5.027344 -14 5.027344 -13.875 2.152344 C-9.22329 -0.216128 -5.086183 -0.100756 0 0 Z " fill="#162134" transform="translate(112.875,18.84765625)"/>
<path d="M0 0 C2.25 0.75 2.25 0.75 3.25 1.75 C3.373421 3.215353 3.427325 4.686597 3.45433 6.156891 C3.474071 7.13024 3.493812 8.103589 3.514151 9.106434 C3.53067 10.205202 3.547189 11.303971 3.564209 12.436035 C3.584867 13.618411 3.605526 14.800788 3.62681 16.018993 C3.682731 19.41492 3.732777 22.81082 3.778697 26.20689 C3.808913 28.437661 3.840635 30.668408 3.872404 32.899158 C4.612865 86.123532 4.362615 139.362818 4.322028 192.591214 C4.314004 203.231219 4.308608 213.871223 4.304932 224.51123 C4.304669 225.269459 4.304406 226.027687 4.304136 226.808892 C4.30283 230.615806 4.301566 234.42272 4.300324 238.229634 C4.290095 269.403094 4.272317 300.576546 4.25 331.75 C-10.27 331.75 -24.79 331.75 -39.75 331.75 C-39.915 331.255 -39.915 331.255 -40.75 328.75 C-41.188281 328.604336 -41.188281 328.604336 -43.40625 327.867188 C-47.336211 326.55414 -50.093222 324.46127 -53.25 321.875 C-53.848044 321.395388 -54.446089 320.915776 -55.062256 320.421631 C-61.243883 315.428747 -67.260913 310.240498 -73.250488 305.02002 C-74.67979 303.809465 -76.165261 302.666173 -77.652344 301.527344 C-78.34457 300.94082 -79.036797 300.354297 -79.75 299.75 C-79.75 299.09 -79.75 298.43 -79.75 297.75 C-80.340793 297.483728 -80.931587 297.217456 -81.540283 296.943115 C-83.799416 295.723318 -85.292456 294.465736 -87.105469 292.660156 C-87.723171 292.046482 -88.340874 291.432808 -88.977295 290.800537 C-89.624163 290.144485 -90.27103 289.488433 -90.9375 288.8125 C-91.273502 288.473839 -91.273502 288.473839 -92.973877 286.76001 C-97.427464 282.221633 -101.581114 277.546366 -105.515625 272.546875 C-107.655972 269.867699 -109.876608 267.289385 -112.135742 264.711182 C-117.236454 258.880994 -121.963954 252.921235 -126.36499 246.543701 C-128.281775 243.768852 -130.229386 241.230371 -132.535156 238.78125 C-134.75 235.75 -134.75 235.75 -135.410156 232.21875 C-134.569231 227.800159 -132.546861 225.954882 -129.1875 223.25 C-128.081166 222.299183 -126.975693 221.347363 -125.871094 220.394531 C-125.333394 219.941587 -124.795693 219.488643 -124.241699 219.021973 C-119.227519 214.746379 -115.275882 210.323168 -111.75 204.75 C-110.842182 203.535005 -109.924622 202.327257 -109 201.125 C-102.986438 193.14253 -97.348507 185.125056 -93.75 175.75 C-91.523438 175.414062 -91.523438 175.414062 -88.75 175.75 C-86.539062 178.023438 -86.539062 178.023438 -84.375 181.125 C-83.987073 181.671562 -83.599146 182.218125 -83.199463 182.78125 C-82.035365 184.427497 -80.89243 186.088643 -79.75 187.75 C-79.137695 188.608516 -78.525391 189.467031 -77.894531 190.351562 C-72.954696 197.2922 -68.27256 204.410959 -63.581543 211.520996 C-54.47156 225.327453 -44.939084 238.71861 -34.75 251.75 C-33.990742 252.74 -33.231484 253.73 -32.449219 254.75 C-31.744102 255.6575 -31.038984 256.565 -30.3125 257.5 C-29.695039 258.299219 -29.077578 259.098438 -28.441406 259.921875 C-26.75 261.75 -26.75 261.75 -23.75 262.75 C-23.754609 261.461022 -23.759218 260.172044 -23.763967 258.844007 C-23.872225 228.255228 -23.954687 197.666501 -24.005327 167.077577 C-24.01158 163.31368 -24.018052 159.549784 -24.024658 155.785889 C-24.02597 155.036556 -24.027281 154.287223 -24.028633 153.515183 C-24.050397 141.377595 -24.089824 129.240125 -24.135764 117.102607 C-24.1825 104.650983 -24.210289 92.199422 -24.220442 79.747714 C-24.227308 72.062539 -24.249 64.377699 -24.289582 56.692627 C-24.319104 50.802486 -24.322281 44.912518 -24.315538 39.022301 C-24.316917 36.603931 -24.326904 34.18555 -24.346027 31.767256 C-24.370821 28.471101 -24.364954 25.176389 -24.351273 21.880203 C-24.365837 20.918139 -24.380401 19.956076 -24.395407 18.964858 C-24.343976 14.396457 -24.257929 12.405282 -21.382342 8.695476 C-18.678168 6.696911 -16.449471 5.622588 -13.25 4.625 C-10.240477 3.66973 -7.781174 2.769051 -5.078125 1.117188 C-2.75 -0.25 -2.75 -0.25 0 0 Z " fill="#162134" transform="translate(713.75,428.25)"/>
<path d="M0 0 C1.598082 0.995157 3.201915 1.981129 4.810791 2.95874 C6.38764 3.918923 7.952022 4.900053 9.499756 5.906494 C20.264356 12.469537 33.317436 11.924282 45.555872 11.913067 C47.956368 11.912076 50.356446 11.925348 52.756882 11.942047 C59.573157 11.987494 66.389388 12.012778 73.205811 12.019531 C101.749561 12.060325 130.119817 13.058204 157.824219 20.638672 C159.467581 21.004132 161.113106 21.360177 162.761719 21.701172 C175.350987 24.482801 187.823158 28.960292 199.824219 33.638672 C200.656953 33.945469 201.489687 34.252266 202.347656 34.568359 C207.199884 36.403953 210.841774 38.241881 214.824219 41.638672 C217.136719 42.388672 217.136719 42.388672 218.824219 42.638672 C218.824219 43.628672 218.824219 44.618672 218.824219 45.638672 C214.611897 45.036912 210.844138 44.01169 206.824219 42.638672 C199.25076 40.180532 191.688813 38.069114 183.914062 36.349609 C181.162532 35.716514 178.472349 34.98772 175.761719 34.201172 C161.370631 30.226889 146.679993 27.913711 131.824219 26.638672 C130.581563 26.526523 129.338906 26.414375 128.058594 26.298828 C82.541974 22.823187 32.12206 24.961314 -4.175781 55.638672 C-17.917012 67.865148 -29.650657 82.065314 -36.964844 99.025391 C-39.902801 105.365691 -39.902801 105.365691 -42.175781 107.638672 C-49.009373 107.310659 -54.324191 105.101039 -60.488281 102.263672 C-67.617352 99.001662 -74.571346 96.549172 -82.175781 94.638672 C-90.721228 92.216929 -96.538209 88.495982 -103.175781 82.638672 C-104.007227 81.973516 -104.838672 81.308359 -105.695312 80.623047 C-110.703667 76.512798 -114.261945 73.204385 -115.175781 66.638672 C-116.462024 45.437108 -111.948011 28.615041 -97.738281 12.451172 C-71.732437 -15.642099 -32.082063 -20.072888 0 0 Z " fill="#162134" transform="translate(674.17578125,383.361328125)"/>
<path d="M0 0 C6.893568 3.093846 11.532933 9.534882 16.371094 15.152344 C17.751222 16.717812 19.211789 18.211789 20.6875 19.6875 C23 22 23 22 24.875 24.4375 C26.632264 26.556554 28.212695 28.082148 30.3125 29.8125 C32.919624 31.977738 35.131189 34.219621 37.3125 36.8125 C41.459832 41.681912 46.194346 45.795052 51 50 C60.905611 58.696205 60.905611 58.696205 63.625 62.125 C66.080485 65.097429 68.682962 67.438886 71.609375 69.929688 C75.107832 72.959397 78.489191 76.113955 81.875244 79.268311 C84.174775 81.395046 86.386045 83.257364 89 85 C89 85.66 89 86.32 89 87 C89.53625 87.226875 90.0725 87.45375 90.625 87.6875 C94.713042 89.946681 98.020134 92.99301 101.257812 96.320312 C104.32417 99.316782 107.55477 101.937152 110.9375 104.5625 C111.532402 105.031074 112.127305 105.499648 112.740234 105.982422 C115.571803 108.195069 118.405947 110.289505 121.441406 112.214844 C122.285742 112.803945 123.130078 113.393047 124 114 C124 114.66 124 115.32 124 116 C124.712852 116.238477 125.425703 116.476953 126.160156 116.722656 C129.460543 118.20715 131.703515 120.06754 134.4375 122.4375 C135.502499 123.346703 136.568963 124.254192 137.636719 125.160156 C138.188921 125.629536 138.741123 126.098916 139.310059 126.58252 C150.540456 136.002295 162.415866 144.694527 174.222656 153.371094 C180.650762 158.122302 186.785662 163.118876 192.851562 168.316406 C195.677259 170.735855 198.547925 173.094487 201.4375 175.4375 C208.06489 180.834366 214.53301 186.413024 221 192 C221.822422 192.707695 222.644844 193.415391 223.492188 194.144531 C227.141257 197.304763 230.626525 200.542188 234 204 C235.331968 205.334697 236.665422 206.667912 238 208 C241 211 244 214 247 217 C247.543984 217.520781 248.087969 218.041562 248.648438 218.578125 C257.411166 227.072997 264.123847 237.348009 270 248 C270.354492 248.617461 270.708984 249.234922 271.074219 249.871094 C275.367326 257.416122 279.149868 265.223243 283 273 C283.192715 273.344824 283.192715 273.344824 284.167969 275.089844 C285.328318 277.753743 285.68881 280.383608 286.125 283.25 C286.292578 284.327656 286.460156 285.405313 286.632812 286.515625 C286.753984 287.335469 286.875156 288.155313 287 289 C286.34 289 285.68 289 285 289 C284.9175 288.38125 284.835 287.7625 284.75 287.125 C284.5025 286.42375 284.255 285.7225 284 285 C283.379961 284.707383 282.759922 284.414766 282.121094 284.113281 C279.55784 282.767927 278.796007 281.526102 277.3125 279.0625 C271.120846 269.39483 263.773668 261.368821 255 254 C254.146641 253.283281 253.293281 252.566563 252.414062 251.828125 C249.629813 249.525608 246.819818 247.258807 244 245 C243.723818 244.77667 243.723818 244.77667 242.326172 243.646484 C235.428631 238.074505 228.573544 232.853861 220.914062 228.339844 C220.282422 227.897695 219.650781 227.455547 219 227 C219 226.34 219 225.68 219 225 C218.265234 224.724141 217.530469 224.448281 216.773438 224.164062 C214.191302 223.080293 211.991458 221.861302 209.625 220.375 C199.592086 214.260266 189.085952 209.003879 178.564453 203.791748 C174.423032 201.733763 170.368649 199.570692 166.347656 197.285156 C160.044008 193.834407 153.541997 190.71891 147.078125 187.582031 C143.278361 185.629107 139.611748 183.490373 135.9375 181.3125 C135.562745 181.090741 135.562745 181.090741 133.66626 179.968506 C131.442073 178.649162 129.220589 177.325388 127 176 C126.407031 175.647441 125.814062 175.294883 125.203125 174.931641 C116.540864 169.76522 108.222824 164.155996 99.966797 158.371582 C98.095765 157.066784 96.213669 155.779793 94.328125 154.496094 C87.64456 149.897691 81.565832 144.985098 75.687256 139.390869 C72.374738 136.239345 68.977003 133.325401 65.375 130.5 C56.783921 123.564428 47.026804 114.484886 43 104 C43.359375 101.71875 43.359375 101.71875 44 100 C48.081452 101.236804 50.714993 103.350038 53.855469 106.175781 C56.42401 108.360679 59.135887 110.283547 61.875 112.25 C66.991296 116.015184 71.000619 120.081697 74.964844 125.03125 C77.314048 127.303801 78.79309 127.687675 82 128 C79.358077 125.244252 76.665298 122.965516 73.5625 120.75 C69.797252 117.878305 67.452756 115.175509 65.265625 110.992188 C62.191126 106.152698 57.400488 102.469394 53.1875 98.625 C52.661965 98.143132 52.136431 97.661265 51.594971 97.164795 C48.670204 94.491631 45.707475 91.878299 42.6875 89.3125 C38.716632 85.857436 35.367798 82.033956 32 78 C31.361914 77.307773 30.723828 76.615547 30.066406 75.902344 C24.364931 69.42289 21.254431 62.393258 17.945312 54.53125 C16.24399 50.494214 14.33439 46.63623 12.3125 42.75 C7.409378 33.077781 4.036532 23.096127 1.675781 12.523438 C1.033166 10.123844 0.118228 8.203567 -1 6 C-1.1875 3.3125 -1.1875 3.3125 -1 1 C-0.67 0.67 -0.34 0.34 0 0 Z " fill="#162134" transform="translate(196,242)"/>
<path d="M0 0 C3.440433 0.181692 4.739242 0.733625 7.175781 3.222656 C7.880898 4.159805 8.586016 5.096953 9.3125 6.0625 C13.944412 11.996896 18.675461 17.736484 24.9375 22 C28.298609 25.259257 27.921333 29.817044 28.083008 34.303419 C28.119848 36.873932 28.118954 39.442056 28.106796 42.012802 C28.106518 42.503071 28.106518 42.503071 28.105109 44.984129 C28.102084 48.254989 28.091908 51.525786 28.081787 54.796631 C28.078229 57.14771 28.075144 59.498789 28.072495 61.849869 C28.065952 66.905846 28.056399 71.961806 28.0446 77.017775 C28.027837 84.337548 28.018057 91.657319 28.010721 98.977107 C27.998788 110.867474 27.983845 122.757834 27.965576 134.648193 C27.964486 135.359056 27.963396 136.069919 27.962273 136.802323 C27.946661 146.890962 27.928064 156.979593 27.908275 167.068225 C27.906882 167.778784 27.905488 168.489344 27.904053 169.221436 C27.903356 169.57628 27.903356 169.57628 27.89983 171.372007 C27.876771 183.218219 27.861471 195.064426 27.852493 206.910657 C27.846132 214.857956 27.83041 222.80518 27.808176 230.752451 C27.796433 235.69898 27.793078 240.645489 27.792078 245.592031 C27.789933 247.882933 27.784351 250.173834 27.775047 252.464718 C27.762821 255.596622 27.763021 258.728294 27.76622 261.860214 C27.759712 262.762369 27.753204 263.664524 27.746499 264.594017 C27.766327 269.595927 28.280067 274.109836 29.532953 278.95781 C30.191134 281.835744 30.341164 284.694304 30.530273 287.633545 C31.460421 301.263671 35.319401 315.85842 45 326 C45.804375 326.886875 46.60875 327.77375 47.4375 328.6875 C56.815399 337.150482 65.987468 340.324276 78.491455 341.229248 C83.576947 341.640146 87.474453 342.578539 92 345 C92.9375 347.6875 92.9375 347.6875 93 350 C89.020565 352.809159 86.299036 353.376187 81.458588 353.380951 C80.815314 353.385631 80.172041 353.390311 79.509275 353.395133 C77.361928 353.407063 75.215222 353.397634 73.067871 353.388184 C71.525219 353.39225 69.98257 353.397592 68.439926 353.404114 C64.256197 353.417781 60.07269 353.412492 55.888958 353.402977 C51.511466 353.39538 47.133993 353.402425 42.7565 353.407135 C35.407619 353.412591 28.058828 353.405403 20.709961 353.391113 C12.209165 353.374775 3.708586 353.380084 -4.792204 353.396592 C-12.089126 353.410196 -19.385982 353.412133 -26.682912 353.404276 C-31.041936 353.399595 -35.400859 353.398987 -39.759876 353.408886 C-43.855726 353.417538 -47.951297 353.411567 -52.047117 353.394203 C-53.551985 353.390229 -55.056876 353.391388 -56.561735 353.397991 C-58.612 353.40616 -60.662316 353.394111 -62.712555 353.380951 C-63.861067 353.37982 -65.00958 353.378689 -66.192896 353.377523 C-69 353 -69 353 -70.904684 351.636347 C-72 350 -72 350 -71.8125 347.4375 C-71 345 -71 345 -69 343 C-67.007324 342.592773 -67.007324 342.592773 -64.554688 342.359375 C-63.650088 342.261809 -62.745488 342.164243 -61.813477 342.063721 C-60.843779 341.960193 -59.874082 341.856665 -58.875 341.75 C-42.55359 339.735716 -28.251468 335.414601 -17.625 322 C-14.984334 318.179936 -12.84385 314.258599 -11 310 C-10.660977 309.247187 -10.321953 308.494375 -9.972656 307.71875 C-7.187706 300.908758 -6.03847 294.059073 -5.038818 286.813232 C-4.930618 286.034397 -4.822417 285.255562 -4.710938 284.453125 C-4.621187 283.763799 -4.531436 283.074473 -4.438965 282.364258 C-4 280 -4 280 -2.989549 277.04981 C-1.551609 272.032868 -1.715182 267.021318 -1.728256 261.838776 C-1.725713 261.280775 -1.725713 261.280775 -1.712842 258.456952 C-1.698192 254.72208 -1.697647 250.98734 -1.697021 247.252441 C-1.68936 244.573256 -1.680908 241.894084 -1.671448 239.214905 C-1.652609 233.448993 -1.640881 227.683102 -1.633909 221.917164 C-1.623731 213.579559 -1.601663 205.242019 -1.576523 196.904448 C-1.535957 183.374951 -1.50348 169.845449 -1.476807 156.315918 C-1.475209 155.506692 -1.473612 154.697465 -1.471966 153.863717 C-1.470367 153.053443 -1.468769 152.24317 -1.467121 151.408343 C-1.444407 139.906175 -1.419775 128.404014 -1.392822 116.901855 C-1.390926 116.091797 -1.38903 115.281739 -1.387076 114.447133 C-1.355344 100.960199 -1.319601 87.473278 -1.281781 73.98636 C-1.258704 65.664405 -1.239763 57.342458 -1.226114 49.020482 C-1.216614 43.326554 -1.203789 37.632641 -1.188305 31.938726 C-1.179507 28.649517 -1.17297 25.360329 -1.169664 22.07111 C-1.165883 18.513819 -1.156097 14.956596 -1.14476 11.399323 C-1.145146 10.348672 -1.145532 9.298022 -1.14593 8.215534 C-1.14381 7.742955 -1.14381 7.742955 -1.133079 5.351419 C-1.131505 4.529322 -1.129931 3.707225 -1.128309 2.860216 C-1 1 -1 1 0 0 Z " fill="#162134" transform="translate(205,363)"/>
<path d="M0 0 C0.658417 -0.001724 1.316834 -0.003448 1.995203 -0.005224 C4.209961 -0.009601 6.424645 -0.006599 8.639404 -0.003418 C10.221075 -0.00452 11.802745 -0.005952 13.384415 -0.00769 C17.681764 -0.010624 21.979076 -0.006243 26.276421 0.00042 C28.955704 0.004383 31.634985 0.006904 34.31427 0.009094 C61.033703 0.034137 87.752006 0.180547 114.469814 0.477272 C117.030527 0.504441 119.591252 0.52805 122.152008 0.55072 C126.166154 0.586852 130.180058 0.633003 134.193998 0.687332 C135.66766 0.705831 137.141368 0.721039 138.615099 0.732773 C140.618579 0.749455 142.621934 0.779612 144.625244 0.810547 C145.747403 0.823871 146.869562 0.837194 148.025726 0.850922 C150.651123 1.129395 150.651123 1.129395 152.651123 3.129395 C152.095567 7.68495 152.095567 7.68495 150.651123 9.129395 C148.743581 9.324822 146.835245 9.514394 144.924316 9.67334 C131.570587 10.820703 119.39951 13.643826 108.651123 22.129395 C108.090381 22.540605 107.529639 22.951816 106.951904 23.375488 C102.982058 26.42537 100.314814 29.962878 97.651123 34.129395 C97.300498 34.675957 97.300498 34.675957 95.526123 37.441895 C93.553882 40.990344 92.441838 44.65573 91.369873 48.559082 C90.921381 50.162927 90.428229 51.755726 89.869873 53.324707 C87.101457 61.270062 86.607264 69.532614 85.900635 77.862793 C85.651123 80.129395 85.651123 80.129395 85.141632 82.66893 C84.519197 87.060115 84.527834 91.334703 84.553467 95.763428 C84.554927 96.719474 84.556387 97.67552 84.557892 98.660538 C84.561694 100.739312 84.567807 102.818083 84.575958 104.896845 C84.588861 108.24188 84.595278 111.586875 84.600098 114.931931 C84.613401 123.280304 84.636996 131.628642 84.661499 139.97699 C84.735598 165.554956 84.779322 191.130495 84.332733 216.705648 C84.295218 218.878775 84.260777 221.051958 84.229523 223.225183 C84.184944 226.208116 84.127276 229.190483 84.065186 232.173096 C84.053629 233.057644 84.042073 233.942192 84.030167 234.853544 C83.880662 240.899855 83.880662 240.899855 81.651123 243.129395 C78.877913 243.356804 76.236617 243.453615 73.463623 243.441895 C73.092051 243.449951 73.092051 243.449951 71.21167 243.490723 C65.971541 243.495315 62.244775 242.715148 57.651123 240.129395 C55.363837 236.795022 55.408304 233.84393 55.424072 229.874054 C55.424143 229.230897 55.424143 229.230897 55.4245 225.976135 C55.434768 224.552123 55.445211 223.128112 55.455811 221.704102 C55.45965 220.202283 55.462577 218.700461 55.464661 217.198639 C55.470986 213.961827 55.48353 210.725118 55.500793 207.488346 C55.527907 202.348837 55.539645 197.209362 55.549072 192.069794 C55.573161 180.207963 55.616966 168.34622 55.66153 156.484451 C55.702082 145.658244 55.73823 134.832069 55.757959 124.005801 C55.766206 119.745069 55.778657 115.48444 55.801453 111.223759 C56.067737 60.85532 56.067737 60.85532 48.651123 43.129395 C48.304365 42.233496 47.957607 41.337598 47.600342 40.414551 C42.465183 28.594349 32.366873 19.201025 20.651123 14.129395 C12.234507 11.182223 4.067066 9.687592 -4.837158 9.402832 C-7.348877 9.129395 -7.348877 9.129395 -9.348877 7.129395 C-9.098877 4.066895 -9.098877 4.066895 -8.348877 1.129395 C-5.522163 -0.283962 -3.162363 0.002124 0 0 Z " fill="#162134" transform="translate(633.348876953125,141.87060546875)"/>
<path d="M0 0 C0.676274 0.321299 1.352549 0.642598 2.049316 0.973633 C2.791816 1.324258 3.534316 1.674883 4.299316 2.036133 C4.687324 2.224336 4.687324 2.224336 6.650879 3.176758 C7.41916 3.537695 8.187441 3.898633 8.979004 4.270508 C12.718002 6.055912 15.998884 7.874825 19.275879 10.426758 C21.071445 11.356066 22.886101 12.248966 24.713379 13.114258 C31.518824 16.454811 37.863418 20.395838 44.275879 24.426758 C46.084674 25.536984 47.896858 26.641719 49.713379 27.739258 C50.083984 27.964199 50.083984 27.964199 51.959473 29.102539 C54.680586 30.658116 57.468874 32.03164 60.275879 33.426758 C63.240991 34.976432 66.19482 36.547396 69.150879 38.114258 C75.282152 41.355311 81.436152 44.536278 87.650879 47.614258 C105.870408 56.664201 105.870408 56.664201 112.775879 61.489258 C117.300999 64.61753 122.143551 66.807667 127.162598 69.032227 C132.718854 71.521039 138.048768 74.355541 143.338379 77.364258 C143.937148 77.69877 144.535918 78.033281 145.152832 78.37793 C148.809991 80.456862 152.039751 82.748583 155.275879 85.426758 C156.936992 86.622014 158.603929 87.809208 160.275879 88.989258 C180.046094 103.316661 195.665413 119.742837 205.275879 142.426758 C205.275879 143.416758 205.275879 144.406758 205.275879 145.426758 C201.808301 144.850093 200.229243 143.716706 197.838379 141.176758 C197.227363 140.54125 196.616348 139.905742 195.986816 139.250977 C195.422207 138.648984 194.857598 138.046992 194.275879 137.426758 C181.255721 123.702807 164.678378 115.252289 147.275879 108.426758 C146.867327 108.266471 146.867327 108.266471 144.799805 107.455322 C131.459613 102.268926 117.97933 97.568355 104.400879 93.051758 C103.624158 92.79314 102.847438 92.534521 102.04718 92.268066 C88.246371 87.681058 88.246371 87.681058 81.783691 85.821289 C67.811631 81.687333 56.184785 74.722953 45.674316 64.742676 C43.87078 63.045563 41.983623 61.457638 40.088379 59.864258 C25.983349 47.42042 15.016904 33.126311 5.053223 17.243164 C3.81459 15.280408 2.555075 13.330741 1.279785 11.391602 C0.639121 10.413203 -0.001543 9.434805 -0.661621 8.426758 C-0.954883 7.98332 -0.954883 7.98332 -2.438965 5.739258 C-3.724121 3.426758 -3.724121 3.426758 -3.724121 0.426758 C-1.724121 -0.573242 -1.724121 -0.573242 0 0 Z " fill="#162134" transform="translate(273.72412109375,408.5732421875)"/>
<path d="M0 0 C2.78883 2.78883 2.411926 4.761132 2.675781 8.667969 C2.782653 10.051475 2.890095 11.434937 2.998047 12.818359 C3.156628 14.980635 3.309588 17.142924 3.450928 19.306396 C4.320177 32.251726 5.885645 45.098263 15 55 C23.155168 61.438291 33.247422 62.886981 43.203369 64.614502 C45 65 45 65 47 66 C46.835 66.495 46.835 66.495 46 69 C42.641714 70.29752 39.573355 70.932152 35.996094 71.355469 C26.08349 72.537491 18.910514 75.356306 12.125 82.875 C4.461391 93.982153 4.225061 109.322456 3.375 122.375 C3.214945 124.744008 3.050696 127.112446 2.875397 129.480377 C2.768116 130.935432 2.669692 132.391174 2.58139 133.847504 C2.224466 138.775534 2.224466 138.775534 0 141 C-2.210519 137.389013 -2.428794 134.097661 -2.746094 129.917969 C-2.774415 129.572351 -2.774415 129.572351 -2.91774 127.823318 C-3.158241 124.886803 -3.380016 121.948966 -3.601807 119.010986 C-5.977422 88.092994 -5.977422 88.092994 -17.667969 76.320312 C-23.37222 71.908329 -31.026428 71.611305 -37.953125 70.675781 C-40.974228 70.241754 -43.378312 69.656174 -46 68 C-46 67.34 -46 66.68 -46 66 C-40.334483 64.15936 -34.731838 62.729468 -28.875 61.625 C-20.603823 59.857731 -15.450348 57.650066 -10.6875 50.5 C-5.278785 40.334009 -4.455367 28.730408 -3.4375 17.4375 C-3.2143 14.977194 -2.984139 12.517507 -2.746094 10.058594 C-2.698036 9.523915 -2.698036 9.523915 -2.454834 6.818115 C-2.022392 4.138739 -1.365757 2.322662 0 0 Z " fill="#162134" transform="translate(1012,208)"/>
<path d="M0 0 C7.539124 0.61365 14.573136 2.248645 21.875 4.1875 C23.060857 4.499211 24.246714 4.810923 25.468506 5.13208 C58.706532 13.977738 101.740228 27.898071 121 59 C121.875 62 121.875 62 122 64 C117.961764 63.66348 114.896543 63.103498 111.3125 61.1875 C108.146113 59.498761 105.043557 58.281438 101.625 57.1875 C95.711349 55.290389 89.971412 53.064705 84.202148 50.775879 C79.314068 48.853748 74.395805 47.091603 69.417236 45.418701 C59.455983 42.063845 50.247797 37.983652 41 33 C40.141484 32.547539 39.282969 32.095078 38.398438 31.628906 C29.330831 26.742652 20.876926 21.020932 12.625 14.875 C11.946873 14.372185 11.268745 13.86937 10.570068 13.351318 C6.769919 10.486243 3.094193 7.64374 0 4 C0 2.68 0 1.36 0 0 Z " fill="#162134" transform="translate(355,508)"/>
<path d="M0 0 C0.869694 0.011264 1.739388 0.022528 2.635437 0.034134 C5.465834 0.078904 8.295136 0.144219 11.125 0.214844 C12.086198 0.236456 13.047395 0.258068 14.03772 0.280334 C53.098366 1.237025 53.098366 1.237025 70.125 9.152344 C71.843138 9.650428 73.572529 10.111909 75.3125 10.527344 C81.52056 12.157915 87.264203 14.55962 93.125 17.152344 C93.984805 17.521016 94.844609 17.889688 95.730469 18.269531 C107.22799 23.31383 118.687412 29.013743 128.808594 36.480469 C131.323296 38.295464 133.919043 39.906321 136.5625 41.527344 C145.328497 47.058564 153.005754 53.923691 160.644531 60.894531 C162.337094 62.435163 164.043533 63.960653 165.761719 65.472656 C170.109195 69.306753 174.159176 73.129008 177.839844 77.609375 C180.304602 80.568584 183.120635 83.190011 185.898438 85.851562 C190.509882 90.344531 194.613179 95.081143 198.640625 100.101562 C200.905417 102.882698 203.223978 105.599814 205.575928 108.306641 C211.41985 115.033828 216.852442 121.964251 222.125 129.152344 C223.541461 131.006668 224.958133 132.86083 226.375 134.714844 C230.905843 140.745388 235.141103 146.964581 239.377686 153.204102 C242.969818 158.488615 246.633045 163.696592 250.441406 168.828125 C253.781431 173.439064 256.804453 178.22029 259.75 183.089844 C262.782473 188.064463 265.940284 192.940396 269.1875 197.777344 C274.597301 205.835779 279.811869 213.995947 284.875 222.277344 C287.920888 227.248793 291.060651 232.147013 294.25 237.027344 C298.709388 243.857675 302.971988 250.794227 307.1875 257.777344 C311.496037 264.9099 315.886704 271.948631 320.565186 278.843994 C324.088406 284.046609 327.424277 289.35645 330.727539 294.700928 C332.513456 297.587962 334.316544 300.433964 336.226562 303.242188 C338.113978 306.135447 339.598113 309.056156 341.125 312.152344 C342.666222 314.906459 344.268149 317.623609 345.875 320.339844 C346.095148 320.713188 346.095148 320.713188 347.209229 322.602539 C350.259152 327.751054 353.397552 332.833333 356.652344 337.855469 C357.700251 339.48987 358.709495 341.149338 359.691406 342.824219 C361.125 345.152344 361.125 345.152344 363.125 347.152344 C363.25 349.777344 363.25 349.777344 363.125 352.152344 C362.135 352.482344 361.145 352.812344 360.125 353.152344 C357.9375 351.839844 357.9375 351.839844 356.125 350.152344 C356.125 349.492344 356.125 348.832344 356.125 348.152344 C355.555234 347.921602 354.985469 347.690859 354.398438 347.453125 C351.549622 345.823133 349.879787 343.832068 347.75 341.339844 C344.400496 337.518114 341.089986 334.30631 337.125 331.152344 C335.455482 329.488533 333.78927 327.821403 332.125 326.152344 C330.081724 324.214683 328.010863 322.307721 325.9375 320.402344 C325.36145 319.870686 324.7854 319.339028 324.191895 318.79126 C320.996534 315.848352 317.766166 312.954197 314.5 310.089844 C308.439094 304.676896 302.776407 298.853573 297.075684 293.066162 C292.819337 288.763675 288.506852 284.620973 283.893311 280.701904 C281.416929 278.531865 279.143178 276.182372 276.839844 273.832031 C275.16658 272.193071 273.431893 270.70382 271.625 269.214844 C268.308069 266.433382 265.552577 263.325681 262.75 260.035156 C260.660093 257.613677 258.415999 255.383054 256.125 253.152344 C255.3 252.306719 254.475 251.461094 253.625 250.589844 C251.125 248.152344 251.125 248.152344 248.3125 245.964844 C247.590625 245.366719 246.86875 244.768594 246.125 244.152344 C246.125 243.492344 246.125 242.832344 246.125 242.152344 C245.542344 241.898398 244.959687 241.644453 244.359375 241.382812 C241.88312 240.01914 240.319794 238.510092 238.375 236.464844 C235.702428 233.712937 232.992842 231.127487 230.0625 228.652344 C227.518927 226.466323 225.272381 224.249152 223.125 221.675781 C220.036031 218.097736 216.770771 214.731212 213.410156 211.410156 C212.905685 210.911229 212.401213 210.412301 211.881454 209.898254 C209.780598 207.824971 207.675905 205.755667 205.567139 203.69043 C204.010503 202.163807 202.459995 200.631173 200.910156 199.097656 C199.991135 198.195474 199.072114 197.293291 198.125244 196.36377 C196.125 194.152344 196.125 194.152344 196.125 192.152344 C195.542344 191.906133 194.959687 191.659922 194.359375 191.40625 C191.754161 189.944233 190.320366 188.358141 188.375 186.089844 C184.19709 181.330718 179.911629 176.693047 175.5625 172.089844 C174.880747 171.367083 174.198994 170.644321 173.496582 169.899658 C171.373615 167.649708 169.24943 165.400913 167.125 163.152344 C139.276988 133.668093 139.276988 133.668093 132 124.464844 C128.998999 120.763609 125.515193 117.532222 122.109375 114.207031 C115.294565 107.528329 109.005805 100.684684 103.125 93.152344 C94.807427 82.600649 94.807427 82.600649 90.125 78.152344 C84.730208 72.996259 79.957388 67.572157 75.285156 61.753906 C72.932362 58.920343 70.433127 56.361918 67.78125 53.8125 C66.063867 52.091066 64.546165 50.278206 63 48.402344 C59.811091 44.700027 56.282645 41.552018 52.5625 38.402344 C52.020288 37.942471 51.478076 37.482598 50.919434 37.008789 C47.46753 34.135517 43.896507 31.60124 40.125 29.152344 C39.432773 28.659922 38.740547 28.1675 38.027344 27.660156 C31.775154 23.260007 25.116306 20.199172 18.125 17.152344 C17.736992 16.960918 17.736992 16.960918 15.773438 15.992188 C9.104095 12.893182 2.139806 12.085973 -5.095947 11.190674 C-5.940847 11.082634 -6.785747 10.974595 -7.65625 10.863281 C-8.42002 10.77353 -9.183789 10.683779 -9.970703 10.591309 C-11.875 10.152344 -11.875 10.152344 -13.875 8.152344 C-14 5.027344 -14 5.027344 -13.875 2.152344 C-9.22329 -0.216128 -5.086183 -0.100756 0 0 Z M-11.875 4.152344 C-11.25 6.085938 -11.25 6.085938 -9.875 8.152344 C-7.1875 8.875 -7.1875 8.875 -3.875 9.214844 C2.085201 9.973772 7.468911 11.14306 13.125 13.152344 C14.000273 13.455273 14.875547 13.758203 15.777344 14.070312 C30.570152 19.691174 46.779593 29.489065 57.847656 40.933594 C59.125 42.152344 59.125 42.152344 61.125 42.152344 C61.24166 42.433359 61.24166 42.433359 61.832031 43.855469 C63.444371 46.719685 65.444356 48.624864 67.8125 50.902344 C72.148746 55.15806 76.207631 59.512509 80.125 64.152344 C80.989575 65.175788 81.854159 66.199225 82.71875 67.222656 C84.144145 68.910409 85.569528 70.59817 86.994385 72.286377 C96.68774 83.751581 96.68774 83.751581 101.472656 88.464844 C104.537906 91.570723 107.363951 94.828015 110.1875 98.152344 C110.70377 98.755625 111.220039 99.358906 111.751953 99.980469 C114.024892 102.644296 116.243024 105.306698 118.371094 108.089844 C118.949883 108.770469 119.528672 109.451094 120.125 110.152344 C120.785 110.152344 121.445 110.152344 122.125 110.152344 C122.378945 110.735 122.632891 111.317656 122.894531 111.917969 C124.258203 114.394224 125.767252 115.95755 127.8125 117.902344 C131.077186 121.085267 134.106996 124.365353 137.078125 127.820312 C140.181443 131.355964 143.390981 134.792209 146.598633 138.233154 C149.271979 141.110256 151.882544 144.024273 154.441406 147.003906 C158.42351 151.577693 162.731431 155.787158 167.0625 160.027344 C172.585076 165.482918 177.90427 170.853132 182.519531 177.109375 C184.532599 179.671016 186.808365 181.860784 189.125 184.152344 C189.972397 184.994504 190.819795 185.836665 191.692871 186.704346 C192.585708 187.590818 193.478545 188.47729 194.398438 189.390625 C195.914132 190.898936 197.429341 192.407734 198.944336 193.916748 C199.976961 194.944349 201.010483 195.971051 202.044922 196.996826 C207.307893 202.217057 212.475313 207.45356 217.296875 213.090576 C220.873642 217.12447 224.703919 220.917226 228.515381 224.728027 C229.957819 226.172694 231.392016 227.625242 232.826172 229.078125 C233.735605 229.989492 234.645039 230.900859 235.582031 231.839844 C236.40679 232.668711 237.231548 233.497578 238.081299 234.351562 C240.125 236.152344 240.125 236.152344 242.125 236.152344 C242.387969 236.753047 242.650937 237.35375 242.921875 237.972656 C244.198944 240.286307 245.329685 241.382199 247.375 243.027344 C251.367435 246.407221 255.066729 250.006665 258.75 253.714844 C259.047693 254.014188 259.047693 254.014188 260.554199 255.529053 C263.038584 258.031603 265.518177 260.538876 267.998047 263.045898 C274.530944 269.643919 281.040443 276.14102 288.125 282.152344 C290.399088 284.189164 292.640688 286.259535 294.875 288.339844 C295.496973 288.918633 296.118945 289.497422 296.759766 290.09375 C303.383852 296.31149 309.782176 302.753618 316.15918 309.223389 C320.648448 313.759927 325.122207 318.181055 330.125 322.152344 C330.785 322.152344 331.445 322.152344 332.125 322.152344 C332.455 323.142344 332.785 324.132344 333.125 325.152344 C334.585937 326.589844 334.585937 326.589844 336.5 328.152344 C342.629185 333.33943 348.167015 339.110345 353.78125 344.84375 C355.765971 346.776546 357.94648 348.444855 360.125 350.152344 C359.518217 347.345251 358.677754 345.077286 357.269531 342.578125 C356.897395 341.915063 356.525259 341.252002 356.141846 340.568848 C355.744412 339.874526 355.346978 339.180205 354.9375 338.464844 C354.530398 337.747319 354.123296 337.029795 353.703857 336.290527 C351.143514 331.817644 348.454303 327.480922 345.53125 323.234375 C341.616474 317.438332 338.24956 311.401464 335.125 305.152344 C329.39925 295.122926 323.127591 285.315835 316.4375 275.902344 C313.056511 271.140719 310.071716 266.19055 307.125 261.152344 C301.783093 252.201041 296.285571 243.356175 290.626953 234.602539 C287.709789 230.082181 284.84575 225.530451 282 220.964844 C271.024458 203.372528 271.024458 203.372528 266.6875 197.277344 C264.07412 193.589574 261.66082 189.826839 259.3125 185.964844 C253.034533 175.655378 246.328164 165.652023 239.167969 155.933594 C236.895246 152.839563 234.664191 149.717015 232.4375 146.589844 C231.587337 145.400972 230.737073 144.212172 229.886719 143.023438 C227.920597 140.272863 225.968197 137.512962 224.019531 134.75 C217.575769 125.66217 210.833268 117.061746 203.471191 108.70459 C201.439556 106.361982 199.504035 103.944778 197.5625 101.527344 C193.448285 96.455639 189.075392 91.66795 184.636719 86.882812 C182.624096 84.694907 180.666584 82.486168 178.75 80.214844 C164.330257 63.228876 145.177465 48.441031 126.167969 37.011719 C124.135443 35.769764 122.133071 34.477099 120.164062 33.136719 C116.970293 31.051327 113.731668 29.340822 110.3125 27.652344 C110.005945 27.500677 110.005945 27.500677 108.45459 26.733154 C104.382659 24.731452 100.276117 22.837405 96.109375 21.042969 C94.18569 20.179583 92.355873 19.21416 90.5 18.214844 C85.067326 15.460705 79.224239 13.698698 73.426758 11.878174 C71.672273 11.324919 69.92242 10.756957 68.174805 10.182373 C60.748352 7.794823 53.471051 6.064458 45.75 4.964844 C44.591858 4.799038 43.433716 4.633232 42.240479 4.462402 C31.209949 3.037121 20.174373 2.576452 9.0625 2.277344 C8.626726 2.264478 8.626726 2.264478 6.421448 2.199371 C3.935977 2.130916 1.450854 2.079287 -1.035156 2.035156 C-1.409536 2.02542 -1.409536 2.02542 -3.304123 1.976151 C-7.067899 1.935653 -8.657461 2.007318 -11.875 4.152344 Z " fill="#162134" transform="translate(112.875,18.84765625)"/>
<path d="M0 0 C2.25 0.75 2.25 0.75 3.25 1.75 C3.373421 3.215353 3.427325 4.686597 3.45433 6.156891 C3.474071 7.13024 3.493812 8.103589 3.514151 9.106434 C3.53067 10.205202 3.547189 11.303971 3.564209 12.436035 C3.584867 13.618411 3.605526 14.800788 3.62681 16.018993 C3.682731 19.41492 3.732777 22.81082 3.778697 26.20689 C3.808913 28.437661 3.840635 30.668408 3.872404 32.899158 C4.612865 86.123532 4.362615 139.362818 4.322028 192.591214 C4.314004 203.231219 4.308608 213.871223 4.304932 224.51123 C4.304669 225.269459 4.304406 226.027687 4.304136 226.808892 C4.30283 230.615806 4.301566 234.42272 4.300324 238.229634 C4.290095 269.403094 4.27253 300.576546 4.25 331.75 C3.26 331.75 2.27 331.75 1.25 331.75 C1.25 223.18 1.25 114.61 1.25 2.75 C-4.75 3.75 -4.75 3.75 -6.5625 5.125 C-9.389276 7.224891 -12.264473 7.953088 -15.628906 8.90625 C-18.048451 9.868721 -19.11523 10.733604 -20.75 12.75 C-21.129008 14.738427 -21.129008 14.738427 -21.134761 17.054721 C-21.144217 17.93851 -21.153674 18.822299 -21.163417 19.732869 C-21.158569 20.704649 -21.153722 21.67643 -21.148727 22.677658 C-21.155374 23.709277 -21.162021 24.740895 -21.168869 25.803775 C-21.187593 29.277078 -21.184888 32.75004 -21.182373 36.223389 C-21.191384 38.706563 -21.20171 41.189733 -21.213257 43.672897 C-21.235187 49.027474 -21.247933 54.381952 -21.252386 59.736563 C-21.25884 67.478441 -21.281764 75.2202 -21.308729 82.962031 C-21.352029 95.522115 -21.381977 108.082195 -21.403564 120.642334 C-21.424565 132.844507 -21.451832 145.04664 -21.487549 157.248779 C-21.489748 158.000714 -21.491946 158.752649 -21.494212 159.527369 C-21.505281 163.299544 -21.516474 167.071718 -21.527728 170.843892 C-21.620958 202.145894 -21.692313 233.447911 -21.75 264.75 C-23.597656 265.378906 -23.597656 265.378906 -25.75 265.75 C-28.1875 263.6875 -28.1875 263.6875 -30.75 260.75 C-31.221797 260.221484 -31.693594 259.692969 -32.179688 259.148438 C-35.75 255.053672 -35.75 255.053672 -35.75 252.75 C-36.41 252.75 -37.07 252.75 -37.75 252.75 C-39.298119 250.804058 -40.718814 248.858384 -42.125 246.8125 C-42.561267 246.189319 -42.997534 245.566138 -43.447021 244.924072 C-44.391179 243.575157 -45.332725 242.224409 -46.271973 240.87207 C-48.259998 238.017773 -50.272981 235.181466 -52.284912 232.343994 C-54.782029 228.818816 -57.266823 225.285006 -59.75 221.75 C-60.177324 221.142046 -60.604648 220.534092 -61.044922 219.907715 C-64.903035 214.409133 -68.695569 208.889231 -72.25 203.1875 C-75.457117 198.078488 -79.006142 193.287896 -82.671875 188.5 C-84.404076 186.207764 -86.027799 183.88618 -87.625 181.5 C-88.32625 180.5925 -89.0275 179.685 -89.75 178.75 C-90.74 178.75 -91.73 178.75 -92.75 178.75 C-92.915 179.678125 -93.08 180.60625 -93.25 181.5625 C-94.620278 186.499531 -97.793024 190.193783 -100.875 194.199219 C-102.452363 196.345089 -103.662497 198.331439 -104.75 200.75 C-105.41 200.75 -106.07 200.75 -106.75 200.75 C-106.876973 201.118027 -106.876973 201.118027 -107.519531 202.980469 C-108.824061 205.916695 -110.257062 207.719279 -112.4375 210.0625 C-115.101618 212.957028 -117.71159 215.869756 -120.25 218.875 C-123.261481 222.373326 -126.583592 225.210982 -130.246094 228.011719 C-131.75 229.75 -131.75 229.75 -132.1875 232.140625 C-131.628819 235.472761 -130.376968 237.144387 -128.3125 239.8125 C-127.576445 240.776719 -126.840391 241.740937 -126.082031 242.734375 C-125.312461 243.729531 -124.542891 244.724687 -123.75 245.75 C-123.052617 246.703906 -122.355234 247.657812 -121.636719 248.640625 C-116.608879 255.515989 -111.230573 262.001076 -105.644531 268.425781 C-105.176118 268.965415 -104.707705 269.505049 -104.225098 270.061035 C-103.174086 271.264428 -102.115644 272.461347 -101.052246 273.653809 C-100.777434 273.96552 -100.777434 273.96552 -99.386719 275.542969 C-98.882292 276.109109 -98.377866 276.675249 -97.858154 277.258545 C-96.75 278.75 -96.75 278.75 -96.75 280.75 C-95.76 281.08 -94.77 281.41 -93.75 281.75 C-92.242188 283.316406 -92.242188 283.316406 -90.625 285.3125 C-87.350175 289.18401 -83.806506 292.495775 -79.960938 295.792969 C-78.390556 297.183006 -76.872575 298.633246 -75.394531 300.121094 C-65.317395 310.13869 -54.14505 318.808772 -41.75 325.75 C-39.3125 327.3125 -39.3125 327.3125 -37.75 328.75 C-37.75 329.74 -37.75 330.73 -37.75 331.75 C-38.74 331.42 -39.73 331.09 -40.75 330.75 C-40.75 330.09 -40.75 329.43 -40.75 328.75 C-41.605937 328.520547 -42.461875 328.291094 -43.34375 328.054688 C-47.214117 326.572231 -50.082477 324.470073 -53.25 321.875 C-53.848044 321.395388 -54.446089 320.915776 -55.062256 320.421631 C-61.243883 315.428747 -67.260913 310.240498 -73.250488 305.02002 C-74.67979 303.809465 -76.165261 302.666173 -77.652344 301.527344 C-78.34457 300.94082 -79.036797 300.354297 -79.75 299.75 C-79.75 299.09 -79.75 298.43 -79.75 297.75 C-80.340793 297.483728 -80.931587 297.217456 -81.540283 296.943115 C-83.799416 295.723318 -85.292456 294.465736 -87.105469 292.660156 C-87.723171 292.046482 -88.340874 291.432808 -88.977295 290.800537 C-89.624163 290.144485 -90.27103 289.488433 -90.9375 288.8125 C-91.273502 288.473839 -91.273502 288.473839 -92.973877 286.76001 C-97.427464 282.221633 -101.581114 277.546366 -105.515625 272.546875 C-107.655972 269.867699 -109.876608 267.289385 -112.135742 264.711182 C-117.236454 258.880994 -121.963954 252.921235 -126.36499 246.543701 C-128.281775 243.768852 -130.229386 241.230371 -132.535156 238.78125 C-134.75 235.75 -134.75 235.75 -135.410156 232.21875 C-134.569231 227.800159 -132.546861 225.954882 -129.1875 223.25 C-128.081166 222.299183 -126.975693 221.347363 -125.871094 220.394531 C-125.333394 219.941587 -124.795693 219.488643 -124.241699 219.021973 C-119.227519 214.746379 -115.275882 210.323168 -111.75 204.75 C-110.842182 203.535005 -109.924622 202.327257 -109 201.125 C-102.986438 193.14253 -97.348507 185.125056 -93.75 175.75 C-91.523438 175.414062 -91.523438 175.414062 -88.75 175.75 C-86.539062 178.023438 -86.539062 178.023438 -84.375 181.125 C-83.987073 181.671562 -83.599146 182.218125 -83.199463 182.78125 C-82.035365 184.427497 -80.89243 186.088643 -79.75 187.75 C-79.137695 188.608516 -78.525391 189.467031 -77.894531 190.351562 C-72.954696 197.2922 -68.27256 204.410959 -63.581543 211.520996 C-54.47156 225.327453 -44.939084 238.71861 -34.75 251.75 C-33.990742 252.74 -33.231484 253.73 -32.449219 254.75 C-31.744102 255.6575 -31.038984 256.565 -30.3125 257.5 C-29.695039 258.299219 -29.077578 259.098438 -28.441406 259.921875 C-26.75 261.75 -26.75 261.75 -23.75 262.75 C-23.754609 261.461022 -23.759218 260.172044 -23.763967 258.844007 C-23.872225 228.255228 -23.954687 197.666501 -24.005327 167.077577 C-24.01158 163.31368 -24.018052 159.549784 -24.024658 155.785889 C-24.02597 155.036556 -24.027281 154.287223 -24.028633 153.515183 C-24.050397 141.377595 -24.089824 129.240125 -24.135764 117.102607 C-24.1825 104.650983 -24.210289 92.199422 -24.220442 79.747714 C-24.227308 72.062539 -24.249 64.377699 -24.289582 56.692627 C-24.319104 50.802486 -24.322281 44.912518 -24.315538 39.022301 C-24.316917 36.603931 -24.326904 34.18555 -24.346027 31.767256 C-24.370821 28.471101 -24.364954 25.176389 -24.351273 21.880203 C-24.365837 20.918139 -24.380401 19.956076 -24.395407 18.964858 C-24.343976 14.396457 -24.257929 12.405282 -21.382342 8.695476 C-18.678168 6.696911 -16.449471 5.622588 -13.25 4.625 C-10.240477 3.66973 -7.781174 2.769051 -5.078125 1.117188 C-2.75 -0.25 -2.75 -0.25 0 0 Z " fill="#162134" transform="translate(713.75,428.25)"/>
<path d="M0 0 C3.440433 0.181692 4.739242 0.733625 7.175781 3.222656 C7.880898 4.159805 8.586016 5.096953 9.3125 6.0625 C13.944412 11.996896 18.675461 17.736484 24.9375 22 C28.298609 25.259257 27.921333 29.817044 28.083008 34.303419 C28.119848 36.873932 28.118954 39.442056 28.106796 42.012802 C28.106518 42.503071 28.106518 42.503071 28.105109 44.984129 C28.102084 48.254989 28.091908 51.525786 28.081787 54.796631 C28.078229 57.14771 28.075144 59.498789 28.072495 61.849869 C28.065952 66.905846 28.056399 71.961806 28.0446 77.017775 C28.027837 84.337548 28.018057 91.657319 28.010721 98.977107 C27.998788 110.867474 27.983845 122.757834 27.965576 134.648193 C27.964486 135.359056 27.963396 136.069919 27.962273 136.802323 C27.946661 146.890962 27.928064 156.979593 27.908275 167.068225 C27.906882 167.778784 27.905488 168.489344 27.904053 169.221436 C27.903356 169.57628 27.903356 169.57628 27.89983 171.372007 C27.876771 183.218219 27.861471 195.064426 27.852493 206.910657 C27.846132 214.857956 27.83041 222.80518 27.808176 230.752451 C27.796433 235.69898 27.793078 240.645489 27.792078 245.592031 C27.789933 247.882933 27.784351 250.173834 27.775047 252.464718 C27.762821 255.596622 27.763021 258.728294 27.76622 261.860214 C27.759712 262.762369 27.753204 263.664524 27.746499 264.594017 C27.766327 269.595927 28.280067 274.109836 29.532953 278.95781 C30.191134 281.835744 30.341164 284.694304 30.530273 287.633545 C31.460421 301.263671 35.319401 315.85842 45 326 C45.804375 326.886875 46.60875 327.77375 47.4375 328.6875 C56.815399 337.150482 65.987468 340.324276 78.491455 341.229248 C83.576947 341.640146 87.474453 342.578539 92 345 C92.9375 347.6875 92.9375 347.6875 93 350 C89.020565 352.809159 86.299036 353.376187 81.458588 353.380951 C80.815314 353.385631 80.172041 353.390311 79.509275 353.395133 C77.361928 353.407063 75.215222 353.397634 73.067871 353.388184 C71.525219 353.39225 69.98257 353.397592 68.439926 353.404114 C64.256197 353.417781 60.07269 353.412492 55.888958 353.402977 C51.511466 353.39538 47.133993 353.402425 42.7565 353.407135 C35.407619 353.412591 28.058828 353.405403 20.709961 353.391113 C12.209165 353.374775 3.708586 353.380084 -4.792204 353.396592 C-12.089126 353.410196 -19.385982 353.412133 -26.682912 353.404276 C-31.041936 353.399595 -35.400859 353.398987 -39.759876 353.408886 C-43.855726 353.417538 -47.951297 353.411567 -52.047117 353.394203 C-53.551985 353.390229 -55.056876 353.391388 -56.561735 353.397991 C-58.612 353.40616 -60.662316 353.394111 -62.712555 353.380951 C-63.861067 353.37982 -65.00958 353.378689 -66.192896 353.377523 C-69 353 -69 353 -70.904684 351.636347 C-72 350 -72 350 -71.8125 347.4375 C-71 345 -71 345 -69 343 C-67.007324 342.592773 -67.007324 342.592773 -64.554688 342.359375 C-63.650088 342.261809 -62.745488 342.164243 -61.813477 342.063721 C-60.843779 341.960193 -59.874082 341.856665 -58.875 341.75 C-42.55359 339.735716 -28.251468 335.414601 -17.625 322 C-14.984334 318.179936 -12.84385 314.258599 -11 310 C-10.660977 309.247187 -10.321953 308.494375 -9.972656 307.71875 C-7.187706 300.908758 -6.03847 294.059073 -5.038818 286.813232 C-4.930618 286.034397 -4.822417 285.255562 -4.710938 284.453125 C-4.621187 283.763799 -4.531436 283.074473 -4.438965 282.364258 C-4 280 -4 280 -2.989549 277.04981 C-1.551609 272.032868 -1.715182 267.021318 -1.728256 261.838776 C-1.725713 261.280775 -1.725713 261.280775 -1.712842 258.456952 C-1.698192 254.72208 -1.697647 250.98734 -1.697021 247.252441 C-1.68936 244.573256 -1.680908 241.894084 -1.671448 239.214905 C-1.652609 233.448993 -1.640881 227.683102 -1.633909 221.917164 C-1.623731 213.579559 -1.601663 205.242019 -1.576523 196.904448 C-1.535957 183.374951 -1.50348 169.845449 -1.476807 156.315918 C-1.475209 155.506692 -1.473612 154.697465 -1.471966 153.863717 C-1.470367 153.053443 -1.468769 152.24317 -1.467121 151.408343 C-1.444407 139.906175 -1.419775 128.404014 -1.392822 116.901855 C-1.390926 116.091797 -1.38903 115.281739 -1.387076 114.447133 C-1.355344 100.960199 -1.319601 87.473278 -1.281781 73.98636 C-1.258704 65.664405 -1.239763 57.342458 -1.226114 49.020482 C-1.216614 43.326554 -1.203789 37.632641 -1.188305 31.938726 C-1.179507 28.649517 -1.17297 25.360329 -1.169664 22.07111 C-1.165883 18.513819 -1.156097 14.956596 -1.14476 11.399323 C-1.145146 10.348672 -1.145532 9.298022 -1.14593 8.215534 C-1.14381 7.742955 -1.14381 7.742955 -1.133079 5.351419 C-1.131505 4.529322 -1.129931 3.707225 -1.128309 2.860216 C-1 1 -1 1 0 0 Z M2 2 C-0.674433 6.994098 -0.263518 12.026846 -0.220322 17.533844 C-0.220118 18.070348 -0.220118 18.070348 -0.219086 20.785383 C-0.21535 24.387769 -0.197316 27.989943 -0.179443 31.592285 C-0.173969 34.172997 -0.169419 36.753712 -0.165726 39.334427 C-0.156541 44.897924 -0.14036 50.461364 -0.119764 56.02483 C-0.090189 64.089329 -0.074591 72.153811 -0.062952 80.218354 C-0.043933 93.330156 -0.018188 106.441935 0.013916 119.553711 C0.015834 120.338412 0.017752 121.123114 0.019728 121.931594 C0.041233 130.668696 0.064384 139.405791 0.089417 148.142883 C0.098447 151.302287 0.107464 154.46169 0.116455 157.621094 C0.118677 158.400591 0.120898 159.180089 0.123187 159.983208 C0.160044 173.029439 0.18504 186.075664 0.200925 199.121937 C0.211205 207.153578 0.23148 215.185069 0.265042 223.216646 C0.290012 229.393117 0.299145 235.569521 0.302736 241.746038 C0.306726 244.263341 0.315833 246.780641 0.3307 249.297903 C0.4754 274.735922 -0.61467 306.247166 -19 326 C-31.876646 338.577189 -46.69412 343.180701 -64.375 344.4375 C-65.57125 344.623125 -66.7675 344.80875 -68 345 C-69.226562 347.035156 -69.226562 347.035156 -70 349 C-68 351 -68 351 -65.301977 351.246096 C-64.146049 351.244252 -62.99012 351.242408 -61.799164 351.240509 C-61.156337 351.242218 -60.513511 351.243927 -59.851205 351.245687 C-57.687638 351.248993 -55.524378 351.237961 -53.36084 351.227051 C-51.813767 351.226487 -50.266693 351.226803 -48.71962 351.227936 C-44.511148 351.228511 -40.30279 351.216726 -36.094345 351.202788 C-31.699428 351.190312 -27.304508 351.189113 -22.909576 351.186737 C-14.583324 351.180513 -6.257124 351.16409 2.069106 351.144038 C11.546594 351.121708 21.024085 351.110693 30.501594 351.100647 C50.001092 351.079724 69.500542 351.04453 89 351 C89.33 349.68 89.66 348.36 90 347 C86.957641 344.97176 85.611929 344.620154 82.097656 344.140625 C65.277811 341.660525 52.721686 338.165525 41 325 C38.584019 321.478996 36.699078 317.912418 35 314 C34.700473 313.320138 34.400947 312.640277 34.092343 311.939814 C22.42807 284.331738 25.394454 252.011872 25.606381 222.762115 C25.654071 215.889438 25.663445 209.016846 25.668893 202.144025 C25.678689 189.884212 25.703306 177.624492 25.744873 165.364746 C25.747333 164.636156 25.749793 163.907566 25.752328 163.156897 C25.788098 152.769577 25.838721 142.382379 25.894934 131.995152 C25.89891 131.259891 25.902886 130.524631 25.906982 129.76709 C25.910963 129.032746 25.914944 128.298402 25.919045 127.541805 C25.984442 115.291448 26.011282 103.041366 26.006566 90.790837 C26.005212 83.262891 26.036108 75.736463 26.109302 68.208867 C26.162402 62.457812 26.163771 56.707651 26.146011 50.956421 C26.147127 48.602123 26.165398 46.247761 26.202139 43.893749 C26.466849 26.065429 26.466849 26.065429 22.795324 20.895657 C20.276681 18.870493 17.870134 17.456947 15 16 C13.122823 14.18279 11.71259 12.281322 10.125 10.1875 C7.630354 6.924209 5.415758 4.305254 2 2 Z " fill="#162134" transform="translate(205,363)"/>
<path d="M0 0 C0.658417 -0.001724 1.316834 -0.003448 1.995203 -0.005224 C4.209961 -0.009601 6.424645 -0.006599 8.639404 -0.003418 C10.221075 -0.00452 11.802745 -0.005952 13.384415 -0.00769 C17.681764 -0.010624 21.979076 -0.006243 26.276421 0.00042 C28.955704 0.004383 31.634985 0.006904 34.31427 0.009094 C61.033703 0.034137 87.752006 0.180547 114.469814 0.477272 C117.030527 0.504441 119.591252 0.52805 122.152008 0.55072 C126.166154 0.586852 130.180058 0.633003 134.193998 0.687332 C135.66766 0.705831 137.141368 0.721039 138.615099 0.732773 C140.618579 0.749455 142.621934 0.779612 144.625244 0.810547 C145.747403 0.823871 146.869562 0.837194 148.025726 0.850922 C150.651123 1.129395 150.651123 1.129395 152.651123 3.129395 C152.095567 7.68495 152.095567 7.68495 150.651123 9.129395 C148.743581 9.324822 146.835245 9.514394 144.924316 9.67334 C131.570587 10.820703 119.39951 13.643826 108.651123 22.129395 C108.090381 22.540605 107.529639 22.951816 106.951904 23.375488 C102.982058 26.42537 100.314814 29.962878 97.651123 34.129395 C97.300498 34.675957 97.300498 34.675957 95.526123 37.441895 C93.553882 40.990344 92.441838 44.65573 91.369873 48.559082 C90.921381 50.162927 90.428229 51.755726 89.869873 53.324707 C87.101457 61.270062 86.607264 69.532614 85.900635 77.862793 C85.651123 80.129395 85.651123 80.129395 85.141632 82.66893 C84.519197 87.060115 84.527834 91.334703 84.553467 95.763428 C84.554927 96.719474 84.556387 97.67552 84.557892 98.660538 C84.561694 100.739312 84.567807 102.818083 84.575958 104.896845 C84.588861 108.24188 84.595278 111.586875 84.600098 114.931931 C84.613401 123.280304 84.636996 131.628642 84.661499 139.97699 C84.735598 165.554956 84.779322 191.130495 84.332733 216.705648 C84.295218 218.878775 84.260777 221.051958 84.229523 223.225183 C84.184944 226.208116 84.127276 229.190483 84.065186 232.173096 C84.053629 233.057644 84.042073 233.942192 84.030167 234.853544 C83.880662 240.899855 83.880662 240.899855 81.651123 243.129395 C78.877913 243.356804 76.236617 243.453615 73.463623 243.441895 C73.092051 243.449951 73.092051 243.449951 71.21167 243.490723 C65.971541 243.495315 62.244775 242.715148 57.651123 240.129395 C55.363837 236.795022 55.408304 233.84393 55.424072 229.874054 C55.424143 229.230897 55.424143 229.230897 55.4245 225.976135 C55.434768 224.552123 55.445211 223.128112 55.455811 221.704102 C55.45965 220.202283 55.462577 218.700461 55.464661 217.198639 C55.470986 213.961827 55.48353 210.725118 55.500793 207.488346 C55.527907 202.348837 55.539645 197.209362 55.549072 192.069794 C55.573161 180.207963 55.616966 168.34622 55.66153 156.484451 C55.702082 145.658244 55.73823 134.832069 55.757959 124.005801 C55.766206 119.745069 55.778657 115.48444 55.801453 111.223759 C56.067737 60.85532 56.067737 60.85532 48.651123 43.129395 C48.304365 42.233496 47.957607 41.337598 47.600342 40.414551 C42.465183 28.594349 32.366873 19.201025 20.651123 14.129395 C12.234507 11.182223 4.067066 9.687592 -4.837158 9.402832 C-7.348877 9.129395 -7.348877 9.129395 -9.348877 7.129395 C-9.098877 4.066895 -9.098877 4.066895 -8.348877 1.129395 C-5.522163 -0.283962 -3.162363 0.002124 0 0 Z M-5.348877 2.129395 C-6.008877 3.449395 -6.668877 4.769395 -7.348877 6.129395 C-3.836399 8.471046 -2.317007 8.351035 1.838623 8.441895 C7.594001 8.776927 12.710114 9.734129 18.213623 11.441895 C18.879666 11.642747 19.545708 11.843599 20.231934 12.050537 C24.435975 13.426978 27.346242 15.227278 30.651123 18.129395 C31.45292 18.708184 32.254717 19.286973 33.080811 19.883301 C39.68886 24.770724 43.710869 29.956654 47.651123 37.129395 C48.039131 37.80873 48.427139 38.488066 48.826904 39.187988 C49.875236 41.134889 50.777413 43.098302 51.651123 45.129395 C51.825791 45.511602 51.825791 45.511602 52.709717 47.445801 C60.813959 67.839992 57.904732 93.154099 57.788048 114.763064 C57.767766 119.033648 57.761006 123.304253 57.753174 127.574875 C57.731218 138.36393 57.691978 149.152897 57.651123 159.941895 C57.606932 171.668955 57.565961 183.395983 57.544287 195.123109 C57.534336 200.191948 57.514648 205.260626 57.487427 210.3294 C57.472544 213.465227 57.465885 216.601031 57.461494 219.736889 C57.457743 221.191802 57.450526 222.64671 57.439629 224.101587 C57.425249 226.082923 57.424292 228.064343 57.424072 230.045731 C57.419631 231.154817 57.41519 232.263903 57.410614 233.406598 C57.651123 236.129395 57.651123 236.129395 59.651123 239.129395 C63.473317 240.403459 67.223781 240.568564 71.213623 240.816895 C71.99415 240.876836 72.774678 240.936777 73.578857 240.998535 C75.599412 241.1258 77.626574 241.135624 79.651123 241.129395 C81.651123 239.129395 81.651123 239.129395 81.89887 236.533582 C81.897906 235.425291 81.896943 234.317 81.89595 233.175125 C81.899888 231.904568 81.903826 230.63401 81.907883 229.324951 C81.902272 227.907958 81.896515 226.490966 81.890625 225.073975 C81.891738 223.58705 81.893795 222.100127 81.896729 220.613205 C81.901463 217.40041 81.900316 214.187688 81.894953 210.974894 C81.887328 205.862416 81.898023 200.750077 81.912155 195.637619 C81.949828 181.09459 81.968231 166.55162 81.956543 152.008545 C81.950252 143.983583 81.962293 135.958845 81.992988 127.933938 C82.008357 123.701301 82.014987 119.469102 81.998407 115.23646 C81.937738 98.625365 82.282005 82.364329 84.940918 65.936768 C85.041968 65.310614 85.041968 65.310614 85.553342 62.141896 C86.818246 55.062557 88.662872 48.670338 91.651123 42.129395 C92.155146 41.010488 92.65917 39.891582 93.178467 38.73877 C97.655705 29.660271 102.209322 23.803392 110.651123 18.129395 C111.307256 17.684668 111.963389 17.239941 112.639404 16.781738 C122.752164 10.554107 134.24886 8.703652 145.920654 8.598145 C146.371182 8.520801 146.371182 8.520801 148.651123 8.129395 C150.037842 6.098145 150.037842 6.098145 150.651123 4.129395 C148.845052 2.323324 146.080407 2.984927 143.646469 2.971176 C142.340901 2.961387 141.035332 2.951599 139.690201 2.941513 C138.229828 2.935608 136.769455 2.929798 135.309082 2.924072 C133.781858 2.914499 132.254636 2.90449 130.727417 2.894073 C126.568535 2.866956 122.409642 2.845984 118.25072 2.826072 C113.909155 2.804254 109.567626 2.776845 105.226089 2.750015 C96.999013 2.700031 88.771917 2.655113 80.544802 2.611993 C71.180967 2.56267 61.817168 2.507733 52.453368 2.452313 C33.185986 2.338405 13.918571 2.231585 -5.348877 2.129395 Z " fill="#162134" transform="translate(633.348876953125,141.87060546875)"/>


</svg>
